# File created by Blade
# Date/Time:  Wed Jan 21 14:58:10 2015
# Frame Rate: 120.000 fps
#------------------------------------------------------
:FULLY-SPECIFIED
:DEGREES
778
root 17.321433 35.196309 -22.296633 -166.027658 -62.533865 -188.691078
Spine -20.840494 43.236879 -14.483722
Head 11.101855 3.438285 -0.227549
LeftShoulder -15.289998 -24.056007 18.395708
LeftArm -7.484172 3.925155 -6.979013
LeftForeArm 13.046880 0.000000 -4.428200
LeftHand -10.932206 -0.000000 -2.896128
LeftHandThumb1 -26.253704 0.000000 33.147579
RightShoulder 3.568818 1.007027 -17.172895
RightArm 22.571249 25.478248 23.837299
RightForeArm -30.712200 -0.000000 5.050170
RightHand -8.671338 -0.000000 5.329767
RightHandThumb1 -24.326973 -0.000000 -32.862282
LeftUpLeg -17.861932 -32.588620 6.475416
LeftLeg 2.885721 -0.000000 -0.000000
LeftFoot -11.152210 7.100951 -13.265526
LeftToeBase 29.224135 -0.000000 -0.000000
RightUpLeg 7.659232 -36.020149 -1.468552
RightLeg -2.132852 -0.000000 0.000000
RightFoot -36.026926 -46.983541 29.645855
RightToeBase 20.962816 -0.000000 -0.000000
779
root 17.308926 35.192256 -22.283849 -165.739120 -63.128381 -189.015624
Spine -20.968302 43.899226 -14.706578
Head 11.132348 3.706670 -0.340085
LeftShoulder -15.498087 -23.522334 18.442427
LeftArm -7.964583 3.995040 -7.483790
LeftForeArm 13.177608 -0.000000 -4.548899
LeftHand -10.743164 -0.000000 -2.939005
LeftHandThumb1 -26.253704 0.000000 33.147579
RightShoulder 3.714036 0.997489 -17.231225
RightArm 23.585831 25.380359 24.471601
RightForeArm -30.692542 -0.000000 4.933908
RightHand -8.662894 -0.000000 4.975366
RightHandThumb1 -24.326973 -0.000000 -32.862282
LeftUpLeg -17.903493 -32.898387 6.440762
LeftLeg 2.756264 -0.000000 -0.000000
LeftFoot -10.938086 6.823402 -13.298144
LeftToeBase 29.382480 -0.000000 -0.000000
RightUpLeg 7.711073 -36.121543 -1.505743
RightLeg -2.020586 -0.000000 0.000000
RightFoot -36.317488 -47.161339 29.964525
RightToeBase 20.813548 -0.000000 -0.000000
780
root 17.294378 35.187095 -22.270772 -165.479885 -63.711447 -189.346591
Spine -21.011163 44.611938 -14.873824
Head 11.088582 3.974353 -0.502925
LeftShoulder -15.700309 -22.991930 18.476581
LeftArm -8.429747 4.214588 -8.106706
LeftForeArm 12.984701 -0.000000 -4.577952
LeftHand -10.920807 -0.000000 -2.940034
LeftHandThumb1 -26.253704 0.000000 33.147579
RightShoulder 3.812376 0.920393 -17.364524
RightArm 24.696595 25.236626 25.172664
RightForeArm -30.254745 0.000000 4.822422
RightHand -9.128498 -0.000000 4.663841
RightHandThumb1 -24.326973 -0.000000 -32.862282
LeftUpLeg -17.895488 -33.177079 6.367704
LeftLeg 2.639063 -0.000000 -0.000000
LeftFoot -10.737153 6.527631 -13.320520
LeftToeBase 29.509553 -0.000000 -0.000000
RightUpLeg 7.801636 -36.158654 -1.568223
RightLeg -1.894925 -0.000000 0.000000
RightFoot -36.577465 -47.436957 30.145616
RightToeBase 20.917530 -0.000000 -0.000000
781
root 17.282250 35.181601 -22.259889 -165.244042 -64.307475 -189.648109
Spine -21.037089 45.288156 -15.022432
Head 10.983417 4.239264 -0.622487
LeftShoulder -15.932814 -22.496741 18.554803
LeftArm -8.918051 4.695934 -8.833796
LeftForeArm 12.736280 -0.000000 -4.564046
LeftHand -10.914267 -0.000000 -3.019003
LeftHandThumb1 -26.253704 0.000000 33.147579
RightShoulder 3.909254 1.065891 -17.538860
RightArm 25.524401 25.419001 26.063982
RightForeArm -30.690754 -0.000000 5.088898
RightHand -8.885571 -0.000000 4.884203
RightHandThumb1 -24.326973 -0.000000 -32.862282
LeftUpLeg -17.879180 -33.407170 6.300641
LeftLeg 2.516283 -0.000000 -0.000000
LeftFoot -10.544165 6.200117 -13.318643
LeftToeBase 29.639623 -0.000000 -0.000000
RightUpLeg 7.903484 -36.231828 -1.600398
RightLeg -1.812136 -0.000000 0.000000
RightFoot -36.827636 -47.666302 30.416471
RightToeBase 20.805804 -0.000000 -0.000000
782
root 17.270454 35.179101 -22.247770 -164.983660 -64.872492 -189.987936
Spine -21.069166 46.009770 -15.157875
Head 10.962388 4.499388 -0.794977
LeftShoulder -16.037073 -22.014396 18.546163
LeftArm -9.513805 5.352124 -9.570050
LeftForeArm 12.418970 -0.000000 -4.407269
LeftHand -11.129675 -0.000000 -3.261763
LeftHandThumb1 -26.253704 0.000000 33.147579
RightShoulder 3.917851 0.759884 -17.688633
RightArm 26.842447 25.859378 27.058163
RightForeArm -30.959154 0.000000 5.133090
RightHand -8.845844 -0.000000 4.668830
RightHandThumb1 -24.326973 -0.000000 -32.862282
LeftUpLeg -17.842968 -33.619796 6.201011
LeftLeg 2.397247 -0.000000 -0.000000
LeftFoot -10.309302 5.902827 -13.377515
LeftToeBase 29.706472 -0.000000 -0.000000
RightUpLeg 7.987717 -36.283734 -1.652371
RightLeg -1.681683 -0.000000 0.000000
RightFoot -37.008896 -47.973302 30.519555
RightToeBase 20.877397 -0.000000 -0.000000
